<svg width="10" height="10" viewBox="0 0 10 10" fill="none" xmlns="http://www.w3.org/2000/svg">
<g id="Frame 37">
<g clip-path="url(#clip0_3685_1982)">
<g id="&#240;&#159;&#166;&#134; icon &#34;Hong Kong&#34;">
<g id="Clip path group">
<mask id="mask0_3685_1982" style="mask-type:luminance" maskUnits="userSpaceOnUse" x="-3" y="-2" width="17" height="14">
<g id="a">
<path id="Vector" d="M-2.5 -1.25H13.75V11.25H-2.5V-1.25Z" fill="white"/>
</g>
</mask>
<g mask="url(#mask0_3685_1982)">
<g id="Group">
<g id="Group_2">
<path id="Vector_2" fill-rule="evenodd" clip-rule="evenodd" d="M13.751 11.25H-3.74902V-1.25H13.751V11.25Z" fill="#BA0000"/>
<path id="Vector_3" fill-rule="evenodd" clip-rule="evenodd" d="M4.75267 4.80469C4.75267 4.80469 3.51805 4.2627 3.69511 2.85645C3.86499 2.18018 4.16886 1.71875 4.71678 1.46729C4.97519 1.38672 5.23838 1.3501 5.50636 1.32812C5.43458 1.39648 5.37716 1.46484 5.34605 1.54785C5.28863 1.7041 5.3317 1.85059 5.41065 1.99951C5.50875 2.17041 5.56857 2.34619 5.58771 2.57568C5.60569 2.73207 5.58285 2.89052 5.52151 3.03501C5.46016 3.17949 5.36249 3.30486 5.23838 3.39844C5.08047 3.52295 4.89384 3.56689 4.74071 3.7085C4.62107 3.82568 4.54929 3.94531 4.52536 4.15039C4.52058 4.54346 4.62346 4.59961 4.75267 4.80469Z" fill="white"/>
<g id="Vector_4">
<path fill-rule="evenodd" clip-rule="evenodd" d="M4.51367 2.76841V2.76172V2.76841Z" fill="#BA0000"/>
<path d="M4.51367 2.76841V2.76172" stroke="black" stroke-width="0.0453246"/>
</g>
</g>
<path id="Vector_5" d="M4.59199 4.65088C4.11345 4.21875 4.15413 3.12744 4.52021 2.76367" stroke="#BA0000" stroke-width="0.0453246"/>
<path id="Vector_6" fill-rule="evenodd" clip-rule="evenodd" d="M4.81515 2.52197L4.89411 2.65625L4.75055 2.59521L4.63809 2.71729L4.65723 2.55859L4.51367 2.49756L4.6692 2.46094L4.68834 2.30469L4.7673 2.43896L4.92521 2.40234" fill="#BA0000"/>
<path id="Vector_7" fill-rule="evenodd" clip-rule="evenodd" d="M4.85547 4.70796C4.85547 4.70796 4.99903 3.34321 6.37003 3.10396C7.05433 3.07466 7.57594 3.23335 7.97312 3.69722C8.12386 3.92427 8.23392 4.17085 8.33202 4.42476C8.24828 4.37593 8.16932 4.33931 8.0784 4.33443C7.91809 4.32222 7.79128 4.40767 7.67643 4.5273C7.54231 4.67879 7.37509 4.79589 7.18832 4.86909C7.04722 4.93275 6.89215 4.95725 6.73879 4.9401C6.58543 4.92295 6.43924 4.86477 6.315 4.77144C6.1523 4.65181 6.05659 4.48335 5.87953 4.37593C5.73564 4.28865 5.56508 4.25906 5.401 4.29292C5.03013 4.40523 5.01099 4.52241 4.85547 4.70796Z" fill="white"/>
<g id="Vector_8">
<path fill-rule="evenodd" clip-rule="evenodd" d="M6.69141 3.88184H6.69814H6.69141Z" fill="#BA0000"/>
<path d="M6.69141 3.88184H6.69814" stroke="black" stroke-width="0.0453246"/>
</g>
<path id="Vector_9" d="M4.94531 4.51305C5.21329 3.91735 6.24693 3.63903 6.69436 3.88805" stroke="#BA0000" stroke-width="0.0453246"/>
<path id="Vector_10" fill-rule="evenodd" clip-rule="evenodd" d="M7.00943 4.104L6.90655 4.21875L6.9209 4.06006L6.77734 3.98682L6.92808 3.9624L6.94244 3.79883L7.02379 3.94531L7.17692 3.91602L7.07403 4.03076L7.15299 4.17725" fill="#BA0000"/>
<path id="Vector_11" fill-rule="evenodd" clip-rule="evenodd" d="M4.94727 4.8032C4.94727 4.8032 6.26323 4.51023 6.91883 5.76267C7.16527 6.41453 7.18202 6.96873 6.87815 7.49851C6.71545 7.71824 6.51925 7.90134 6.31587 8.07957C6.33501 7.98191 6.34219 7.89402 6.31827 7.80613C6.27998 7.645 6.16035 7.54978 6.012 7.47654C5.82793 7.3944 5.66557 7.2689 5.53825 7.11033C5.43503 6.99398 5.36365 6.85195 5.33131 6.69852C5.29897 6.54508 5.3068 6.38567 5.35402 6.2363C5.41144 6.04099 5.53826 5.89451 5.58132 5.68943C5.61713 5.52293 5.59068 5.34878 5.50715 5.20115C5.28463 4.87888 5.16978 4.89597 4.94727 4.8032Z" fill="white"/>
<g id="Vector_12">
<path fill-rule="evenodd" clip-rule="evenodd" d="M6.2998 6.32324L6.30466 6.32864L6.2998 6.32324Z" fill="#BA0000"/>
<path d="M6.2998 6.32324L6.30466 6.32864" stroke="black" stroke-width="0.0453246"/>
</g>
<path id="Vector_13" d="M5.16113 4.8291C5.79758 4.8999 6.38379 5.81055 6.29526 6.32568" stroke="#BA0000" stroke-width="0.0453246"/>
<path id="Vector_14" fill-rule="evenodd" clip-rule="evenodd" d="M6.19097 6.70117L6.0498 6.6377L6.20533 6.60107L6.22447 6.4375L6.29864 6.57666L6.45417 6.54004L6.3465 6.66211L6.41828 6.80127L6.2795 6.73779L6.17183 6.86231" fill="#BA0000"/>
<path id="Vector_15" fill-rule="evenodd" clip-rule="evenodd" d="M4.92061 4.94385C4.92061 4.94385 5.56424 6.1499 4.57368 7.14111C4.02815 7.56592 3.51133 7.73926 2.92752 7.59033C2.67629 7.49268 2.44898 7.35352 2.22168 7.20215C2.31739 7.19482 2.40592 7.17773 2.48248 7.12891C2.62126 7.0459 2.67629 6.90186 2.705 6.73828C2.7299 6.53429 2.80208 6.33929 2.91555 6.16943C2.99584 6.0354 3.10933 5.92534 3.24459 5.85033C3.37985 5.77532 3.5321 5.73802 3.68599 5.74219C3.88698 5.74463 4.05925 5.83008 4.26502 5.81543C4.43012 5.79346 4.55932 5.74707 4.70527 5.60059C4.94454 5.29541 4.89669 5.18555 4.92061 4.94141V4.94385Z" fill="white"/>
<g id="Vector_16">
<path fill-rule="evenodd" clip-rule="evenodd" d="M3.87059 6.69141L3.86816 6.6968L3.87059 6.69141Z" fill="#BA0000"/>
<path d="M3.87059 6.69141L3.86816 6.6968" stroke="black" stroke-width="0.0453246"/>
</g>
<path id="Vector_17" d="M4.95151 5.15625C5.06875 5.80078 4.37487 6.6333 3.86523 6.68701" stroke="#BA0000" stroke-width="0.0453246"/>
<path id="Vector_18" fill-rule="evenodd" clip-rule="evenodd" d="M3.48658 6.69434L3.50811 6.53809L3.58707 6.67725L3.74499 6.65283L3.63492 6.76514L3.71388 6.9043L3.56793 6.8335L3.45787 6.9458L3.47701 6.78955L3.33105 6.71875" fill="#BA0000"/>
<path id="Vector_19" fill-rule="evenodd" clip-rule="evenodd" d="M4.7741 4.91699C4.7741 4.91699 3.87445 5.9375 2.62548 5.31738C2.05124 4.93408 1.72105 4.49219 1.66602 3.88184C1.67319 3.60596 1.72344 3.34229 1.78804 3.07617C1.82872 3.16406 1.87418 3.24219 1.94357 3.30078C2.06559 3.40576 2.21872 3.41064 2.38142 3.38379C2.57671 3.34015 2.77943 3.34518 2.97241 3.39844C3.12352 3.43089 3.26353 3.50354 3.37824 3.60902C3.49296 3.71449 3.5783 3.84904 3.62561 3.99902C3.69022 4.19189 3.66868 4.38721 3.75243 4.58008C3.82421 4.73145 3.91034 4.83887 4.09458 4.93164C4.45826 5.06104 4.54201 4.97803 4.7741 4.91943V4.91699Z" fill="white"/>
<g id="Vector_20">
<path fill-rule="evenodd" clip-rule="evenodd" d="M2.81008 4.49293L2.80469 4.49023L2.81008 4.49293Z" fill="#BA0000"/>
<path d="M2.81008 4.49293L2.80469 4.49023" stroke="black" stroke-width="0.0453246"/>
</g>
<path id="Vector_21" d="M4.58396 5.02148C4.02886 5.34619 3.02872 4.95557 2.80859 4.48438" stroke="#BA0000" stroke-width="0.0453246"/>
<path id="Vector_22" fill-rule="evenodd" clip-rule="evenodd" d="M2.67862 4.12061L2.82936 4.08887L2.72648 4.21094L2.80065 4.35498L2.66187 4.28662L2.55899 4.40869L2.57574 4.24268L2.43457 4.17432L2.58531 4.14258L2.60206 3.97656" fill="#BA0000"/>
</g>
</g>
</g>
</g>
</g>
</g>
<defs>
<clipPath id="clip0_3685_1982">
<path d="M0 5C0 2.23858 2.23858 0 5 0C7.76142 0 10 2.23858 10 5C10 7.76142 7.76142 10 5 10C2.23858 10 0 7.76142 0 5Z" fill="white"/>
</clipPath>
</defs>
</svg>
