<svg width="12" height="12" viewBox="0 0 12 12" fill="none" xmlns="http://www.w3.org/2000/svg">
<g id="Frame 37">
<g clip-path="url(#clip0_1293_59078)">
<g id="&#240;&#159;&#166;&#134; icon &#34;Hong Kong&#34;">
<g id="Clip path group">
<mask id="mask0_1293_59078" style="mask-type:luminance" maskUnits="userSpaceOnUse" x="-3" y="-2" width="20" height="16">
<g id="a">
<path id="Vector" d="M-3 -1.5H16.5V13.5H-3V-1.5Z" fill="white"/>
</g>
</mask>
<g mask="url(#mask0_1293_59078)">
<g id="Group">
<g id="Group_2">
<path id="Vector_2" fill-rule="evenodd" clip-rule="evenodd" d="M16.502 13.5H-4.49805V-1.5H16.502V13.5Z" fill="#BA0000"/>
<path id="Vector_3" fill-rule="evenodd" clip-rule="evenodd" d="M5.70398 5.76562C5.70398 5.76562 4.22244 5.11523 4.43491 3.42773C4.63877 2.61621 5.00341 2.0625 5.66092 1.76074C5.97101 1.66406 6.28684 1.62012 6.60841 1.59375C6.52228 1.67578 6.45337 1.75781 6.41604 1.85742C6.34713 2.04492 6.39882 2.2207 6.49357 2.39941C6.61128 2.60449 6.68306 2.81543 6.70603 3.09082C6.72761 3.27848 6.7002 3.46863 6.62659 3.64201C6.55298 3.81538 6.43577 3.96584 6.28684 4.07812C6.09734 4.22754 5.87338 4.28027 5.68963 4.45019C5.54607 4.59082 5.45993 4.73437 5.43122 4.98047C5.42548 5.45215 5.54894 5.51953 5.70398 5.76562Z" fill="white"/>
<g id="Vector_4">
<path fill-rule="evenodd" clip-rule="evenodd" d="M5.41797 3.3215V3.31348V3.3215Z" fill="#BA0000"/>
<path d="M5.41797 3.3215V3.31348" stroke="black" stroke-width="0.0453246"/>
</g>
</g>
<path id="Vector_5" d="M5.51116 5.58105C4.93692 5.0625 4.98573 3.75293 5.42503 3.31641" stroke="#BA0000" stroke-width="0.0453246"/>
<path id="Vector_6" fill-rule="evenodd" clip-rule="evenodd" d="M5.77779 3.02637L5.87254 3.1875L5.70026 3.11426L5.56532 3.26074L5.58829 3.07031L5.41602 2.99707L5.60264 2.95312L5.62561 2.76562L5.72036 2.92676L5.90986 2.88281" fill="#BA0000"/>
<path id="Vector_7" fill-rule="evenodd" clip-rule="evenodd" d="M5.82812 5.64955C5.82812 5.64955 6.0004 4.01186 7.6456 3.72475C8.46676 3.68959 9.09269 3.88002 9.56931 4.43666C9.75019 4.70912 9.88227 5.00502 9.99999 5.30971C9.8995 5.25111 9.80475 5.20717 9.69564 5.20131C9.50327 5.18666 9.3511 5.2892 9.21328 5.43276C9.05234 5.61454 8.85167 5.75506 8.62755 5.84291C8.45823 5.9193 8.27214 5.9487 8.08811 5.92812C7.90408 5.90754 7.72865 5.83772 7.57956 5.72572C7.38432 5.58217 7.26947 5.38002 7.057 5.25111C6.88433 5.14638 6.67966 5.11087 6.48276 5.15151C6.03772 5.28627 6.01475 5.4269 5.82812 5.64955Z" fill="white"/>
<g id="Vector_8">
<path fill-rule="evenodd" clip-rule="evenodd" d="M8.03125 4.6582H8.03933H8.03125Z" fill="#BA0000"/>
<path d="M8.03125 4.6582H8.03933" stroke="black" stroke-width="0.0453246"/>
</g>
<path id="Vector_9" d="M5.93555 5.41507C6.25712 4.70023 7.49748 4.36625 8.0344 4.66507" stroke="#BA0000" stroke-width="0.0453246"/>
<path id="Vector_10" fill-rule="evenodd" clip-rule="evenodd" d="M8.41132 4.9248L8.28786 5.0625L8.30508 4.87207L8.13281 4.78418L8.3137 4.75488L8.33093 4.55859L8.42855 4.73438L8.6123 4.69922L8.48884 4.83691L8.58359 5.0127" fill="#BA0000"/>
<path id="Vector_11" fill-rule="evenodd" clip-rule="evenodd" d="M5.9375 5.76325C5.9375 5.76325 7.51666 5.41169 8.30337 6.91462C8.59911 7.69685 8.61921 8.36189 8.25456 8.99763C8.05932 9.2613 7.82388 9.48103 7.57983 9.69489C7.6028 9.57771 7.61141 9.47224 7.5827 9.36677C7.53676 9.17341 7.3932 9.05915 7.21519 8.97126C6.9943 8.8727 6.79947 8.7221 6.64669 8.53181C6.52281 8.39219 6.43716 8.22175 6.39835 8.03763C6.35954 7.85352 6.36894 7.66221 6.4256 7.48298C6.49451 7.2486 6.64669 7.07282 6.69837 6.82673C6.74134 6.62692 6.70959 6.41795 6.60936 6.24079C6.34234 5.85407 6.20452 5.87458 5.9375 5.76325Z" fill="white"/>
<g id="Vector_12">
<path fill-rule="evenodd" clip-rule="evenodd" d="M7.56055 7.58789L7.56637 7.59436L7.56055 7.58789Z" fill="#BA0000"/>
<path d="M7.56055 7.58789L7.56637 7.59436" stroke="black" stroke-width="0.0453246"/>
</g>
<path id="Vector_13" d="M6.19336 5.79492C6.9571 5.87988 7.66055 6.97266 7.55431 7.59082" stroke="#BA0000" stroke-width="0.0453246"/>
<path id="Vector_14" fill-rule="evenodd" clip-rule="evenodd" d="M7.42917 8.04199L7.25977 7.96582L7.44639 7.92188L7.46936 7.72559L7.55837 7.89258L7.745 7.84863L7.61579 7.99512L7.70193 8.16211L7.5354 8.08594L7.4062 8.23535" fill="#BA0000"/>
<path id="Vector_15" fill-rule="evenodd" clip-rule="evenodd" d="M5.90474 5.93262C5.90474 5.93262 6.67709 7.37988 5.48841 8.56934C4.83378 9.0791 4.2136 9.28711 3.51302 9.1084C3.21154 8.99121 2.93878 8.82422 2.66602 8.64258C2.78086 8.63379 2.8871 8.61328 2.97898 8.55469C3.14551 8.45508 3.21154 8.28223 3.246 8.08594C3.27588 7.84115 3.3625 7.60715 3.49867 7.40332C3.59501 7.24248 3.7312 7.1104 3.89351 7.02039C4.05582 6.93038 4.23852 6.88562 4.42319 6.89062C4.66437 6.89355 4.8711 6.99609 5.11803 6.97852C5.31614 6.95215 5.47118 6.89648 5.64633 6.7207C5.93345 6.35449 5.87602 6.22266 5.90474 5.92969V5.93262Z" fill="white"/>
<g id="Vector_16">
<path fill-rule="evenodd" clip-rule="evenodd" d="M4.64549 8.03027L4.64258 8.03675L4.64549 8.03027Z" fill="#BA0000"/>
<path d="M4.64549 8.03027L4.64258 8.03675" stroke="black" stroke-width="0.0453246"/>
</g>
<path id="Vector_17" d="M5.9422 6.1875C6.08289 6.96094 5.25024 7.95996 4.63867 8.02441" stroke="#BA0000" stroke-width="0.0453246"/>
<path id="Vector_18" fill-rule="evenodd" clip-rule="evenodd" d="M4.18468 8.0332L4.21052 7.8457L4.30527 8.0127L4.49477 7.9834L4.36269 8.11816L4.45744 8.28516L4.2823 8.2002L4.15022 8.33496L4.17319 8.14746L3.99805 8.0625" fill="#BA0000"/>
<path id="Vector_19" fill-rule="evenodd" clip-rule="evenodd" d="M5.7297 5.90039C5.7297 5.90039 4.65012 7.125 3.15135 6.38086C2.46226 5.9209 2.06604 5.39062 2 4.6582C2.00861 4.32715 2.06891 4.01074 2.14643 3.69141C2.19524 3.79687 2.24979 3.89062 2.33306 3.96094C2.47949 4.08691 2.66325 4.09277 2.85849 4.06055C3.09284 4.00818 3.3361 4.01421 3.56768 4.07812C3.749 4.11707 3.91701 4.20425 4.05467 4.33082C4.19233 4.45739 4.29474 4.61885 4.35152 4.79883C4.42904 5.03027 4.4032 5.26465 4.50369 5.49609C4.58983 5.67773 4.69319 5.80664 4.91427 5.91797C5.3507 6.07324 5.45119 5.97363 5.7297 5.90332V5.90039Z" fill="white"/>
<g id="Vector_20">
<path fill-rule="evenodd" clip-rule="evenodd" d="M3.37366 5.39093L3.36719 5.3877L3.37366 5.39093Z" fill="#BA0000"/>
<path d="M3.37366 5.39093L3.36719 5.3877" stroke="black" stroke-width="0.0453246"/>
</g>
<path id="Vector_21" d="M5.50153 6.02637C4.83541 6.41602 3.63524 5.94727 3.37109 5.38184" stroke="#BA0000" stroke-width="0.0453246"/>
<path id="Vector_22" fill-rule="evenodd" clip-rule="evenodd" d="M3.21474 4.94531L3.39562 4.90723L3.27216 5.05371L3.36117 5.22656L3.19464 5.14453L3.07118 5.29102L3.09128 5.0918L2.92188 5.00977L3.10276 4.97168L3.12286 4.77246" fill="#BA0000"/>
</g>
</g>
</g>
</g>
</g>
</g>
<defs>
<clipPath id="clip0_1293_59078">
<path d="M0 6C0 2.68629 2.68629 0 6 0C9.31371 0 12 2.68629 12 6C12 9.31371 9.31371 12 6 12C2.68629 12 0 9.31371 0 6Z" fill="white"/>
</clipPath>
</defs>
</svg>
