<svg width="24" height="24" viewBox="0 0 24 24" fill="none" xmlns="http://www.w3.org/2000/svg">
<g id="bell_ringing_line" clip-path="url(#clip0_1241_62981)">
<g id="Group">
<path id="Vector" d="M12.0001 2.99996C13.8566 2.99996 15.6371 3.73745 16.9498 5.05021C18.2626 6.36296 19.0001 8.14344 19.0001 9.99996V13.764L20.8221 17.408C20.906 17.5757 20.9456 17.7621 20.9371 17.9494C20.9287 18.1367 20.8725 18.3188 20.7739 18.4783C20.6754 18.6378 20.5376 18.7695 20.3738 18.8608C20.21 18.9521 20.0256 19 19.8381 19H4.16209C3.97457 19 3.79015 18.9521 3.62635 18.8608C3.46256 18.7695 3.32483 18.6378 3.22623 18.4783C3.12764 18.3188 3.07146 18.1367 3.06304 17.9494C3.05461 17.7621 3.09421 17.5757 3.17809 17.408L5.00009 13.764V9.99996C5.00009 8.14344 5.73759 6.36296 7.05034 5.05021C8.36309 3.73745 10.1436 2.99996 12.0001 2.99996ZM12.0001 4.99996C10.674 4.99996 9.40224 5.52674 8.46455 6.46442C7.52687 7.4021 7.00009 8.67387 7.00009 9.99996V13.764C7.00007 14.0743 6.92783 14.3804 6.78909 14.658L5.61909 17H18.3821L17.2121 14.658C17.073 14.3804 17.0004 14.0744 17.0001 13.764V9.99996C17.0001 8.67387 16.4733 7.4021 15.5356 6.46442C14.5979 5.52674 13.3262 4.99996 12.0001 4.99996ZM16.8801 2.36996C17.0471 2.16411 17.289 2.03299 17.5527 2.00542C17.8163 1.97786 18.0801 2.0561 18.2861 2.22296C19.3691 3.099 20.2579 4.19081 20.8961 5.42896C21.0114 5.66407 21.0299 5.93505 20.9476 6.18364C20.8652 6.43224 20.6887 6.63863 20.4558 6.75846C20.223 6.87828 19.9524 6.90199 19.7023 6.82449C19.4521 6.74698 19.2424 6.57445 19.1181 6.34396C18.6071 5.35254 17.8953 4.47833 17.0281 3.77696C16.8221 3.61009 16.6908 3.36825 16.663 3.10459C16.6353 2.84094 16.7133 2.57706 16.8801 2.37096V2.36996ZM7.12009 2.36996C7.2028 2.47204 7.26459 2.58942 7.30192 2.71539C7.33925 2.84136 7.35139 2.97346 7.33765 3.10413C7.3239 3.23479 7.28454 3.36147 7.22182 3.47692C7.15909 3.59236 7.07423 3.69432 6.97209 3.77696C6.10833 4.47547 5.39874 5.34544 4.88809 6.33196C4.83004 6.45236 4.74845 6.5599 4.64812 6.64823C4.5478 6.73656 4.43079 6.80388 4.30401 6.84621C4.17722 6.88854 4.04324 6.90503 3.90997 6.89469C3.77671 6.88436 3.64687 6.84741 3.52813 6.78603C3.40939 6.72466 3.30416 6.6401 3.21865 6.53736C3.13315 6.43461 3.06912 6.31577 3.03033 6.18786C2.99154 6.05995 2.9788 5.92555 2.99284 5.79263C3.00688 5.6597 3.04743 5.53094 3.11209 5.41396C3.74961 4.18192 4.63558 3.0954 5.71409 2.22296C5.92019 2.05622 6.18408 1.97814 6.44773 2.00589C6.71138 2.03365 6.95322 2.16496 7.12009 2.37096V2.36996ZM9.00009 20H15.0001C15.0001 20.5304 14.7894 21.0391 14.4143 21.4142C14.0392 21.7892 13.5305 22 13.0001 22H11.0001C10.4697 22 9.96095 21.7892 9.58587 21.4142C9.2108 21.0391 9.00009 20.5304 9.00009 20Z" fill="#3D3D3D"/>
</g>
</g>
<defs>
<clipPath id="clip0_1241_62981">
<rect width="24" height="24" fill="white"/>
</clipPath>
</defs>
</svg>
