<svg width="12" height="12" viewBox="0 0 12 12" fill="none" xmlns="http://www.w3.org/2000/svg">
<g id="icon/&#62;">
<mask id="mask0_1052_44131" style="mask-type:alpha" maskUnits="userSpaceOnUse" x="0" y="0" width="12" height="12">
<rect id="Bounding box" width="12" height="12" fill="#D9D9D9"/>
</mask>
<g mask="url(#mask0_1052_44131)">
<path id="arrow_forward_ios" d="M7.23731 6L3.56231 2.325C3.43731 2.2 3.37689 2.05208 3.38106 1.88125C3.38523 1.71042 3.44981 1.5625 3.57481 1.4375C3.69981 1.3125 3.84773 1.25 4.01856 1.25C4.18939 1.25 4.33731 1.3125 4.46231 1.4375L8.29981 5.2875C8.39981 5.3875 8.47481 5.5 8.52481 5.625C8.57481 5.75 8.59981 5.875 8.59981 6C8.59981 6.125 8.57481 6.25 8.52481 6.375C8.47481 6.5 8.39981 6.6125 8.29981 6.7125L4.44981 10.5625C4.32481 10.6875 4.17898 10.7479 4.01231 10.7438C3.84564 10.7396 3.69981 10.675 3.57481 10.55C3.44981 10.425 3.38731 10.2771 3.38731 10.1062C3.38731 9.93542 3.44981 9.7875 3.57481 9.6625L7.23731 6Z" fill="white"/>
</g>
</g>
</svg>
