<svg width="141" height="54" viewBox="0 0 141 54" fill="none" xmlns="http://www.w3.org/2000/svg">
<g id="Levels">
<g id="Battery">
<rect id="Border" opacity="0.35" x="82" y="23.5" width="24" height="12" rx="3.8" stroke="black"/>
<path id="Cap" opacity="0.4" d="M107.5 27.7812V31.8567C108.305 31.5116 108.828 30.7086 108.828 29.819C108.828 28.9294 108.305 28.1264 107.5 27.7812Z" fill="black"/>
<rect id="Capacity" x="83.5" y="25" width="21" height="9" rx="2.5" fill="black"/>
</g>
<path id="Wifi" fill-rule="evenodd" clip-rule="evenodd" d="M65.7705 26.104C68.2576 26.1041 70.6496 27.0262 72.4521 28.6796C72.5879 28.8073 72.8048 28.8057 72.9385 28.676L74.236 27.4126C74.3037 27.3468 74.3414 27.2577 74.3409 27.165C74.3403 27.0724 74.3015 26.9837 74.233 26.9187C69.502 22.544 62.0383 22.544 57.3073 26.9187C57.2387 26.9837 57.1999 27.0723 57.1992 27.165C57.1986 27.2577 57.2363 27.3468 57.3039 27.4126L58.6018 28.676C58.7354 28.8059 58.9525 28.8075 59.0881 28.6796C60.8909 27.0261 63.2832 26.104 65.7705 26.104ZM65.7672 30.3243C67.1245 30.3242 68.4334 30.8359 69.4395 31.76C69.5756 31.8912 69.7899 31.8883 69.9226 31.7536L71.2099 30.4343C71.2777 30.3651 71.3153 30.2712 71.3143 30.1737C71.3133 30.0761 71.2738 29.9831 71.2047 29.9153C68.1408 27.0244 63.3961 27.0244 60.3323 29.9153C60.2631 29.9831 60.2236 30.0762 60.2227 30.1738C60.2218 30.2714 60.2595 30.3652 60.3274 30.4343L61.6143 31.7536C61.747 31.8883 61.9614 31.8912 62.0974 31.76C63.1029 30.8365 64.4107 30.3248 65.7672 30.3243ZM68.2916 33.1178C68.2935 33.2232 68.2565 33.3247 68.1892 33.3985L66.0125 35.8533C65.9487 35.9254 65.8617 35.966 65.7709 35.966C65.6802 35.966 65.5932 35.9254 65.5294 35.8533L63.3523 33.3985C63.2851 33.3247 63.2481 33.2231 63.2501 33.1177C63.2521 33.0124 63.2929 32.9126 63.3629 32.842C64.753 31.5281 66.7889 31.5281 68.179 32.842C68.2489 32.9127 68.2897 33.0125 68.2916 33.1178Z" fill="black"/>
<path id="Cellular Connection" fill-rule="evenodd" clip-rule="evenodd" d="M49.7 24.6824C49.7 24.0493 49.2224 23.5361 48.6333 23.5361H47.5667C46.9776 23.5361 46.5 24.0493 46.5 24.6824V34.6163C46.5 35.2494 46.9776 35.7625 47.5667 35.7625H48.6333C49.2224 35.7625 49.7 35.2494 49.7 34.6163V24.6824ZM42.2659 25.9814H43.3326C43.9217 25.9814 44.3992 26.5069 44.3992 27.1552V34.5888C44.3992 35.237 43.9217 35.7625 43.3326 35.7625H42.2659C41.6768 35.7625 41.1992 35.237 41.1992 34.5888V27.1552C41.1992 26.5069 41.6768 25.9814 42.2659 25.9814ZM37.9341 28.6305H36.8674C36.2783 28.6305 35.8008 29.1627 35.8008 29.8191V34.5739C35.8008 35.2303 36.2783 35.7625 36.8674 35.7625H37.9341C38.5232 35.7625 39.0008 35.2303 39.0008 34.5739V29.8191C39.0008 29.1627 38.5232 28.6305 37.9341 28.6305ZM32.6333 31.0758H31.5667C30.9776 31.0758 30.5 31.6003 30.5 32.2475V34.5909C30.5 35.238 30.9776 35.7625 31.5667 35.7625H32.6333C33.2224 35.7625 33.7 35.238 33.7 34.5909V32.2475C33.7 31.6003 33.2224 31.0758 32.6333 31.0758Z" fill="black"/>
</g>
</svg>
