<svg width="12" height="12" viewBox="0 0 12 12" fill="none" xmlns="http://www.w3.org/2000/svg">
<g id="sun_cloudy_fill" clip-path="url(#clip0_1241_62973)">
<g id="Group">
<path id="Vector" d="M5.49983 3C6.13219 3.00003 6.74837 3.19981 7.26045 3.57082C7.77252 3.94184 8.15432 4.46512 8.35133 5.066C9.00185 5.21293 9.57684 5.59116 9.96935 6.13032C10.3618 6.66949 10.5451 7.33287 10.4851 7.99707C10.4251 8.66126 10.1258 9.28103 9.64297 9.74107C9.16015 10.2011 8.52665 10.4701 7.86033 10.498L7.74983 10.5H3.24983C2.71844 10.5005 2.204 10.313 1.79765 9.97055C1.3913 9.62811 1.11927 9.15291 1.02973 8.62911C0.940196 8.10531 1.03894 7.56673 1.30847 7.10876C1.57801 6.6508 2.00093 6.30301 2.50233 6.127C2.4852 5.72269 2.55005 5.3191 2.69297 4.9405C2.83588 4.5619 3.05392 4.21613 3.33395 3.924C3.61399 3.63187 3.95023 3.39941 4.32245 3.24062C4.69466 3.08183 5.09516 2.99998 5.49983 3ZM7.99983 1.5C8.53543 1.49982 9.06132 1.64304 9.52287 1.91477C9.98442 2.1865 10.3648 2.57684 10.6245 3.04526C10.8842 3.51367 11.0138 4.04308 10.9998 4.5785C10.9858 5.11391 10.8287 5.63582 10.5448 6.09C10.1367 5.40387 9.49081 4.89145 8.72983 4.65C8.48016 4.05322 8.07005 3.53726 7.54501 3.15934C7.01997 2.78142 6.40051 2.55632 5.75533 2.509C6.03666 2.1912 6.38238 1.93687 6.76952 1.7629C7.15667 1.58894 7.5764 1.49933 8.00083 1.5H7.99983Z" fill="#58B2DC"/>
</g>
</g>
<defs>
<clipPath id="clip0_1241_62973">
<rect width="12" height="12" fill="white"/>
</clipPath>
</defs>
</svg>
