<svg width="24" height="24" viewBox="0 0 24 24" fill="none" xmlns="http://www.w3.org/2000/svg">
<g id="icon/bookmark">
<mask id="mask0_979_44860" style="mask-type:alpha" maskUnits="userSpaceOnUse" x="0" y="0" width="24" height="24">
<rect id="Bounding box" width="24" height="24" fill="#D9D9D9"/>
</mask>
<g mask="url(#mask0_979_44860)">
<path id="developer_guide" d="M5 21C4.45 21 3.97917 20.8042 3.5875 20.4125C3.19583 20.0208 3 19.55 3 19V5C3 4.45 3.19583 3.97917 3.5875 3.5875C3.97917 3.19583 4.45 3 5 3H19C19.55 3 20.0208 3.19583 20.4125 3.5875C20.8042 3.97917 21 4.45 21 5V19C21 19.55 20.8042 20.0208 20.4125 20.4125C20.0208 20.8042 19.55 21 19 21H5ZM5 5V19H19V5H17V11.125C17 11.325 16.9167 11.4708 16.75 11.5625C16.5833 11.6542 16.4167 11.65 16.25 11.55L15.025 10.8C14.8583 10.7 14.6833 10.65 14.5 10.65C14.3167 10.65 14.1417 10.7 13.975 10.8L12.75 11.55C12.5833 11.65 12.4167 11.6542 12.25 11.5625C12.0833 11.4708 12 11.325 12 11.125V5H5Z" fill="black"/>
</g>
</g>
</svg>
