<svg width="46" height="46" viewBox="0 0 46 46" fill="none" xmlns="http://www.w3.org/2000/svg">
<g id="location_fill">
<rect id="Rectangle 6" x="17" y="16" width="13" height="13" fill="#FDF08B"/>
<g id="Group">
<path id="Vector" d="M32.8872 34.2436L32.8891 34.2415C35.8004 31.266 38.625 27.0582 38.625 21.875C38.625 17.8636 37.0315 14.0165 34.195 11.18C31.3585 8.34352 27.5114 6.75 23.5 6.75C19.4886 6.75 15.6415 8.34352 12.805 11.18C9.96852 14.0165 8.375 17.8636 8.375 21.875C8.375 27.0583 11.1997 31.2644 14.1108 34.2415L14.1131 34.2438C15.6717 35.817 17.3801 37.2344 19.2141 38.4757L19.2173 38.4778L19.8835 38.9214L19.8835 38.9214L19.8878 38.9243L20.1998 39.1274L20.1997 39.1275L20.2106 39.1342L21.0556 39.6542L21.0555 39.6543L21.0662 39.6606L21.7422 40.0538L21.7463 40.0562C22.2807 40.3603 22.8851 40.5203 23.5 40.5203C24.1149 40.5203 24.7193 40.3603 25.2537 40.0562L25.2578 40.0538L25.9338 39.6606L25.9338 39.6607L25.9428 39.6552L26.4888 39.3221L26.4888 39.3222L26.4969 39.317L27.1095 38.927L27.1096 38.9271L27.1179 38.9216L27.4429 38.7055L27.4429 38.7055L27.4474 38.7024L28.1396 38.2312L28.1396 38.2312L28.1433 38.2286C29.8436 37.0487 31.4315 35.7147 32.8872 34.2436ZM21.8258 17.833C22.3566 17.6132 22.9255 17.5 23.5 17.5C24.6603 17.5 25.7731 17.9609 26.5936 18.7814C27.4141 19.6019 27.875 20.7147 27.875 21.875C27.875 23.0353 27.4141 24.1481 26.5936 24.9686C25.7731 25.7891 24.6603 26.25 23.5 26.25C22.9255 26.25 22.3566 26.1368 21.8258 25.917C21.295 25.6971 20.8127 25.3748 20.4064 24.9686C20.0002 24.5623 19.6779 24.08 19.458 23.5492C19.2382 23.0184 19.125 22.4495 19.125 21.875C19.125 21.3005 19.2382 20.7316 19.458 20.2008C19.6779 19.67 20.0002 19.1877 20.4064 18.7814C20.8127 18.3751 21.295 18.0529 21.8258 17.833Z" fill="#65A542" stroke="white"/>
</g>
</g>
</svg>
