<svg width="58" height="58" viewBox="0 0 58 58" fill="none" xmlns="http://www.w3.org/2000/svg">
<g clip-path="url(#clip0_795_29631)">
<path d="M0 8C0 3.58172 3.58172 0 8 0H50C54.4183 0 58 3.58172 58 8V50C58 54.4183 54.4183 58 50 58H8C3.58172 58 0 54.4183 0 50V8Z" fill="white"/>
<circle cx="28.8655" cy="42.8655" r="30.8655" fill="#FDF08B"/>
<circle cx="19.1295" cy="31.4828" r="2.62685" fill="#3D3D3D"/>
<circle cx="37.5219" cy="31.4828" r="2.62685" fill="#3D3D3D"/>
<path fill-rule="evenodd" clip-rule="evenodd" d="M32.4456 34.7926C32.7938 34.8941 32.9938 35.2587 32.8922 35.6069C32.5862 36.6561 31.9778 37.4472 31.1553 37.967C30.3428 38.4805 29.3593 38.7066 28.3215 38.7066C25.3598 38.7066 24.0188 36.8391 23.7397 35.5633C23.6622 35.209 23.8866 34.859 24.2409 34.7815C24.5952 34.7039 24.9453 34.9283 25.0228 35.2827C25.1815 36.0083 26.0295 37.3931 28.3215 37.3931C29.1764 37.3931 29.9004 37.2064 30.4535 36.8568C30.9966 36.5135 31.412 35.9911 31.6313 35.2391C31.7329 34.8909 32.0975 34.691 32.4456 34.7926Z" fill="#3D3D3D"/>
</g>
<defs>
<clipPath id="clip0_795_29631">
<path d="M0 8C0 3.58172 3.58172 0 8 0H50C54.4183 0 58 3.58172 58 8V50C58 54.4183 54.4183 58 50 58H8C3.58172 58 0 54.4183 0 50V8Z" fill="white"/>
</clipPath>
</defs>
</svg>
