<svg width="50" height="50" viewBox="0 0 50 50" fill="none" xmlns="http://www.w3.org/2000/svg">
<g id="pic">
<g clip-path="url(#clip0_1241_62959)">
<path d="M0 25C0 11.1929 11.1929 0 25 0C38.8071 0 50 11.1929 50 25C50 38.8071 38.8071 50 25 50C11.1929 50 0 38.8071 0 25Z" fill="white"/>
<g id="Group 632572">
<circle id="Ellipse 1" cx="25.7212" cy="33.1733" r="22.5962" fill="#FDF08B"/>
<circle id="Ellipse 2" cx="18.5896" cy="24.8401" r="1.92308" fill="#3D3D3D"/>
<circle id="Ellipse 3" cx="32.0515" cy="24.8401" r="1.92308" fill="#3D3D3D"/>
<path id="Vector 1 (Stroke)" fill-rule="evenodd" clip-rule="evenodd" d="M28.3398 27.2635C28.5947 27.3378 28.7411 27.6047 28.6667 27.8597C28.4427 28.6278 27.9973 29.2069 27.3951 29.5875C26.8004 29.9634 26.0803 30.1289 25.3206 30.1289C23.1523 30.1289 22.1706 28.7618 21.9663 27.8278C21.9095 27.5684 22.0738 27.3121 22.3332 27.2554C22.5926 27.1986 22.8489 27.3629 22.9056 27.6223C23.0218 28.1535 23.6426 29.1673 25.3206 29.1673C25.9465 29.1673 26.4764 29.0306 26.8814 28.7747C27.279 28.5234 27.5831 28.141 27.7436 27.5904C27.818 27.3355 28.0849 27.1892 28.3398 27.2635Z" fill="#3D3D3D"/>
</g>
</g>
</g>
<defs>
<clipPath id="clip0_1241_62959">
<path d="M0 25C0 11.1929 11.1929 0 25 0C38.8071 0 50 11.1929 50 25C50 38.8071 38.8071 50 25 50C11.1929 50 0 38.8071 0 25Z" fill="white"/>
</clipPath>
</defs>
</svg>
