<svg width="33" height="32" viewBox="0 0 33 32" fill="none" xmlns="http://www.w3.org/2000/svg">
<g id="icon/book_4">
<mask id="mask0_3215_3958" style="mask-type:alpha" maskUnits="userSpaceOnUse" x="0" y="0" width="33" height="32">
<rect id="Bounding box" x="0.25" width="32" height="32" fill="#D9D9D9"/>
</mask>
<g mask="url(#mask0_3215_3958)">
<path id="book_4" d="M8.25 29.3332C7.13889 29.3332 6.19444 28.9443 5.41667 28.1665C4.63889 27.3887 4.25 26.4443 4.25 25.3332V6.6665C4.25 5.55539 4.63889 4.61095 5.41667 3.83317C6.19444 3.05539 7.13889 2.6665 8.25 2.6665H20.25C20.9833 2.6665 21.6111 2.92762 22.1333 3.44984C22.6556 3.97206 22.9167 4.59984 22.9167 5.33317V21.3332C22.9167 22.0665 22.6556 22.6943 22.1333 23.2165C21.6111 23.7387 20.9833 23.9998 20.25 23.9998H8.25C7.87222 23.9998 7.55556 24.1276 7.3 24.3832C7.04444 24.6387 6.91667 24.9554 6.91667 25.3332C6.91667 25.7109 7.04444 26.0276 7.3 26.2832C7.55556 26.5387 7.87222 26.6665 8.25 26.6665H25.5833V6.6665C25.5833 6.28873 25.7111 5.97206 25.9667 5.7165C26.2222 5.46095 26.5389 5.33317 26.9167 5.33317C27.2944 5.33317 27.6111 5.46095 27.8667 5.7165C28.1222 5.97206 28.25 6.28873 28.25 6.6665V26.6665C28.25 27.3998 27.9889 28.0276 27.4667 28.5498C26.9444 29.0721 26.3167 29.3332 25.5833 29.3332H8.25ZM12.25 21.3332H20.25V5.33317H12.25V21.3332ZM9.58333 21.3332V5.33317H8.25C7.87222 5.33317 7.55556 5.46095 7.3 5.7165C7.04444 5.97206 6.91667 6.28873 6.91667 6.6665V21.5665C7.13889 21.4998 7.35556 21.4443 7.56667 21.3998C7.77778 21.3554 8.00556 21.3332 8.25 21.3332H9.58333Z" fill="#1C1B1F"/>
</g>
</g>
</svg>
