<svg width="20" height="20" viewBox="0 0 20 20" fill="none" xmlns="http://www.w3.org/2000/svg">
<g id="icon/search">
<mask id="mask0_3430_27334" style="mask-type:alpha" maskUnits="userSpaceOnUse" x="0" y="0" width="20" height="20">
<rect id="Bounding box" width="20" height="20" fill="#D9D9D9"/>
</mask>
<g mask="url(#mask0_3430_27334)">
<path id="search" d="M9.16699 15.0003C10.7781 15.0003 12.1531 14.4344 13.292 13.3024C14.4309 12.1705 15.0003 10.792 15.0003 9.16699C15.0003 7.55588 14.4309 6.18088 13.292 5.04199C12.1531 3.9031 10.7781 3.33366 9.16699 3.33366C7.54199 3.33366 6.16352 3.9031 5.03158 5.04199C3.89963 6.18088 3.33366 7.55588 3.33366 9.16699C3.33366 10.792 3.89963 12.1705 5.03158 13.3024C6.16352 14.4344 7.54199 15.0003 9.16699 15.0003ZM9.16699 16.667C8.12533 16.667 7.14963 16.4691 6.23991 16.0732C5.33019 15.6774 4.53852 15.1427 3.86491 14.4691C3.1913 13.7955 2.65658 13.0038 2.26074 12.0941C1.86491 11.1844 1.66699 10.2087 1.66699 9.16699C1.66699 8.13921 1.86491 7.17046 2.26074 6.26074C2.65658 5.35102 3.1913 4.55588 3.86491 3.87533C4.53852 3.19477 5.33019 2.65658 6.23991 2.26074C7.14963 1.86491 8.12533 1.66699 9.16699 1.66699C10.1948 1.66699 11.1635 1.86491 12.0732 2.26074C12.983 2.65658 13.7781 3.19477 14.4587 3.87533C15.1392 4.55588 15.6774 5.35102 16.0732 6.26074C16.4691 7.17046 16.667 8.13921 16.667 9.16699C16.667 10.0559 16.5212 10.8962 16.2295 11.6878C15.9378 12.4795 15.535 13.2017 15.0212 13.8545L17.7503 16.5837C17.917 16.7503 17.9969 16.9448 17.9899 17.167C17.983 17.3892 17.8962 17.5837 17.7295 17.7503C17.5628 17.9031 17.3684 17.9795 17.1462 17.9795C16.9239 17.9795 16.7295 17.9031 16.5628 17.7503L13.8337 15.042C13.1809 15.5559 12.4587 15.9552 11.667 16.2399C10.8753 16.5246 10.042 16.667 9.16699 16.667Z" fill="#6D6D6D"/>
</g>
</g>
</svg>
