<svg width="33" height="32" viewBox="0 0 33 32" fill="none" xmlns="http://www.w3.org/2000/svg">
<g id="icon/sticky_note">
<mask id="mask0_3215_3952" style="mask-type:alpha" maskUnits="userSpaceOnUse" x="0" y="0" width="33" height="32">
<rect id="Bounding box" x="0.75" width="32" height="32" fill="#D9D9D9"/>
</mask>
<g mask="url(#mask0_3215_3952)">
<path id="sticky_note" d="M7.41667 28C6.68333 28 6.05556 27.7389 5.53333 27.2167C5.01111 26.6944 4.75 26.0667 4.75 25.3333V6.66667C4.75 5.93333 5.01111 5.30556 5.53333 4.78333C6.05556 4.26111 6.68333 4 7.41667 4H26.0833C26.8167 4 27.4444 4.26111 27.9667 4.78333C28.4889 5.30556 28.75 5.93333 28.75 6.66667V20.2333C28.75 20.5889 28.6833 20.9278 28.55 21.25C28.4167 21.5722 28.2278 21.8556 27.9833 22.1L22.85 27.2333C22.6056 27.4778 22.3222 27.6667 22 27.8C21.6778 27.9333 21.3389 28 20.9833 28H7.41667ZM20.75 25.3333V22.6667C20.75 21.9333 21.0111 21.3056 21.5333 20.7833C22.0556 20.2611 22.6833 20 23.4167 20H26.0833V6.66667H7.41667V25.3333H20.75ZM15.4167 13.3333V20C15.4167 20.3778 15.5444 20.6944 15.8 20.95C16.0556 21.2056 16.3722 21.3333 16.75 21.3333C17.1278 21.3333 17.4444 21.2056 17.7 20.95C17.9556 20.6944 18.0833 20.3778 18.0833 20V13.3333H20.75C21.1278 13.3333 21.4444 13.2056 21.7 12.95C21.9556 12.6944 22.0833 12.3778 22.0833 12C22.0833 11.6222 21.9556 11.3056 21.7 11.05C21.4444 10.7944 21.1278 10.6667 20.75 10.6667H12.75C12.3722 10.6667 12.0556 10.7944 11.8 11.05C11.5444 11.3056 11.4167 11.6222 11.4167 12C11.4167 12.3778 11.5444 12.6944 11.8 12.95C12.0556 13.2056 12.3722 13.3333 12.75 13.3333H15.4167Z" fill="#1C1B1F"/>
</g>
</g>
</svg>
